<svg xmlns="http://www.w3.org/2000/svg" xml:space="preserve" viewBox="0 0 2500 2500"><path d="M0-17.6h2500v2536.8H0z"/><path fill="none" d="M0 0h2500v2500H0V0z"/><path fill="#fff" d="M1479.2 998.1h-435c-18.5 0-33.6 15.1-33.6 33.6v435c0 18.5 15.1 33.6 33.6 33.6h435c18.5 0 33.6-15.1 33.6-33.6v-435c0-18.4-15.1-33.6-33.6-33.6zm-502-500.4h-435c-18.5 0-33.6 15.1-33.6 33.6v435c0 18.5 15.1 33.6 33.6 33.6h435c18.5 0 33.6-15.1 33.6-33.6v-435c-.1-18.5-15.2-33.6-33.6-33.6zm1002.5 0h-435c-18.5 0-33.6 15.1-33.6 33.6v435c0 18.5 15.1 33.6 33.6 33.6h435c18.5 0 33.6-15.1 33.6-33.6v-435c0-18.5-15.2-33.6-33.6-33.6zM977.2 1498.6h-435c-18.5 0-33.6 15.1-33.6 33.6v435c0 18.5 15.1 33.6 33.6 33.6h435c18.5 0 33.6-15.1 33.6-33.6v-435c-.1-18.5-15.2-33.6-33.6-33.6zm1002.5 0h-435c-18.5 0-33.6 15.1-33.6 33.6v435c0 18.5 15.1 33.6 33.6 33.6h435c18.5 0 33.6-15.1 33.6-33.6v-435c0-18.5-15.2-33.6-33.6-33.6z"/></svg>
